<?xml version="1.0" encoding="UTF-8"?>
<svg version="1.1" xmlns="http://www.w3.org/2000/svg" width="512" height="512">
<path d="M0 0 C0.9005864 -0.00701431 1.80117279 -0.01402863 2.72904968 -0.02125549 C5.61759506 -0.03865309 8.50593541 -0.04510727 11.39453125 -0.046875 C12.38157043 -0.04754974 13.36860962 -0.04822449 14.38555908 -0.04891968 C28.85671684 -0.03318728 42.97697736 0.33212486 57.20703125 3.203125 C58.1088916 3.38004883 59.01075195 3.55697266 59.93994141 3.73925781 C80.17763406 7.80012215 99.38620745 13.74874289 118.20703125 22.203125 C118.92987305 22.52007324 119.65271484 22.83702148 120.39746094 23.16357422 C144.1266721 33.58088153 165.62023748 48.47481824 184.71484375 65.93359375 C186.33908621 67.41272363 187.97916341 68.87470619 189.63671875 70.31640625 C228.36891207 104.16067102 254.26679034 153.39234635 264.95703125 203.265625 C265.15594971 204.18609619 265.35486816 205.10656738 265.55981445 206.05493164 C268.80878817 222.08794095 269.58684642 238.07119597 269.51953125 254.390625 C269.5173761 255.33500427 269.51522095 256.27938354 269.51300049 257.25238037 C269.46119959 271.41917654 269.06940483 285.28216525 266.20703125 299.203125 C265.90901611 300.67193115 265.90901611 300.67193115 265.60498047 302.17041016 C253.17293407 361.57417344 221.42896785 417.52216449 173.20703125 455.203125 C171.96220103 456.20047272 170.71741194 457.19787177 169.47265625 458.1953125 C129.10422974 490.17896649 77.06543932 511.94196932 25.0546875 512.44140625 C23.78098549 512.45616501 23.78098549 512.45616501 22.48155212 512.47122192 C3.38349404 512.64679974 -15.0793958 512.47198756 -33.79296875 508.203125 C-34.85290039 507.96174805 -35.91283203 507.72037109 -37.00488281 507.47167969 C-60.49182802 501.93919926 -85.87867295 494.10552581 -106.46907139 481.148386 C-111.15696608 478.39334944 -114.06543899 477.83942634 -119.32365417 479.19200134 C-120.11266617 479.42601151 -120.90167816 479.66002167 -121.71459961 479.90112305 C-122.99746353 480.24432083 -122.99746353 480.24432083 -124.3062439 480.5944519 C-127.13160354 481.35758004 -129.94383226 482.16085969 -132.7578125 482.96484375 C-134.75171851 483.51201692 -136.74632796 484.05663246 -138.74159241 484.59883118 C-144.01164619 486.03826253 -149.27154914 487.51184928 -154.5300293 488.99291992 C-159.75601794 490.45878004 -164.99055463 491.89334108 -170.22460938 493.33007812 C-178.3190522 495.55616083 -186.40935389 497.79659111 -194.49560547 500.05224609 C-195.93313706 500.4532166 -195.93313706 500.4532166 -197.3997097 500.86228752 C-198.34181612 501.12508066 -199.28392254 501.3878738 -200.25457764 501.65863037 C-207.79994729 503.76329824 -215.34620942 505.864502 -222.89892769 507.94266701 C-224.31353733 508.33287257 -225.72761997 508.72499451 -227.14112663 509.11917686 C-229.05054936 509.65159526 -230.96187046 510.17719172 -232.87329102 510.70239258 C-233.92895767 510.99471268 -234.98462433 511.28703278 -236.07228088 511.58821106 C-238.79296875 512.203125 -238.79296875 512.203125 -242.79296875 512.203125 C-242.15516556 504.3343845 -239.91963406 496.922001 -237.77734375 489.359375 C-237.36444092 487.88674286 -236.95205345 486.41396613 -236.54014587 484.9410553 C-235.66519359 481.81494111 -234.78713166 478.6897212 -233.90731812 475.56497192 C-232.53419826 470.68131671 -231.18149131 465.79213433 -229.83129883 460.90209961 C-222.31416278 433.7213043 -222.31416278 433.7213043 -218.31814575 420.79788208 C-216.97685262 416.45320414 -215.67856596 412.09628885 -214.38464355 407.73730469 C-213.78949965 405.78129236 -213.17144179 403.83208209 -212.52893066 401.89111328 C-208.40967137 389.5601485 -208.40967137 389.5601485 -211.43823242 377.34228516 C-213.05236924 374.50122604 -214.79220011 371.76740895 -216.60958862 369.05264282 C-218.26566543 366.46434216 -219.46367997 363.75604816 -220.6484375 360.92578125 C-221.03999023 359.99072754 -221.43154297 359.05567383 -221.83496094 358.09228516 C-222.21297852 357.1594873 -222.59099609 356.22668945 -222.98046875 355.265625 C-223.39844727 354.24259277 -223.81642578 353.21956055 -224.24707031 352.16552734 C-231.23014037 334.87012338 -236.11731595 317.50216016 -239.79296875 299.203125 C-239.97520996 298.31189941 -240.15745117 297.42067383 -240.34521484 296.50244141 C-245.6220263 269.29929696 -245.3213342 237.32802829 -239.79296875 210.203125 C-239.44913195 208.34767233 -239.10538585 206.49220286 -238.76171875 204.63671875 C-232.16268414 170.61349767 -218.03709158 137.37431451 -197.79296875 109.203125 C-197.05433594 108.17058594 -196.31570312 107.13804688 -195.5546875 106.07421875 C-185.20142783 91.96951153 -173.49565525 77.27685896 -160.0078125 66.05078125 C-158.26151598 64.5939942 -156.55298898 63.09193141 -154.859375 61.57421875 C-113.58463977 24.74869774 -55.61555696 0.2917899 0 0 Z " fill="#55CD6C" transform="translate(242.79296875,-0.203125)"/>
<path d="M0 0 C0.9005864 -0.00701431 1.80117279 -0.01402863 2.72904968 -0.02125549 C5.61759506 -0.03865309 8.50593541 -0.04510727 11.39453125 -0.046875 C12.38157043 -0.04754974 13.36860962 -0.04822449 14.38555908 -0.04891968 C28.85671684 -0.03318728 42.97697736 0.33212486 57.20703125 3.203125 C58.1088916 3.38004883 59.01075195 3.55697266 59.93994141 3.73925781 C80.17763406 7.80012215 99.38620745 13.74874289 118.20703125 22.203125 C118.92987305 22.52007324 119.65271484 22.83702148 120.39746094 23.16357422 C144.1266721 33.58088153 165.62023748 48.47481824 184.71484375 65.93359375 C186.33908621 67.41272363 187.97916341 68.87470619 189.63671875 70.31640625 C228.36891207 104.16067102 254.26679034 153.39234635 264.95703125 203.265625 C265.15594971 204.18609619 265.35486816 205.10656738 265.55981445 206.05493164 C268.80878817 222.08794095 269.58684642 238.07119597 269.51953125 254.390625 C269.5173761 255.33500427 269.51522095 256.27938354 269.51300049 257.25238037 C269.46119959 271.41917654 269.06940483 285.28216525 266.20703125 299.203125 C265.90901611 300.67193115 265.90901611 300.67193115 265.60498047 302.17041016 C253.17293407 361.57417344 221.42896785 417.52216449 173.20703125 455.203125 C171.96220103 456.20047272 170.71741194 457.19787177 169.47265625 458.1953125 C129.10422974 490.17896649 77.06543932 511.94196932 25.0546875 512.44140625 C23.78098549 512.45616501 23.78098549 512.45616501 22.48155212 512.47122192 C3.38349404 512.64679974 -15.0793958 512.47198756 -33.79296875 508.203125 C-34.85290039 507.96174805 -35.91283203 507.72037109 -37.00488281 507.47167969 C-60.49182802 501.93919926 -85.87867295 494.10552581 -106.46907139 481.148386 C-111.15696608 478.39334944 -114.06543899 477.83942634 -119.32365417 479.19200134 C-120.11266617 479.42601151 -120.90167816 479.66002167 -121.71459961 479.90112305 C-122.99746353 480.24432083 -122.99746353 480.24432083 -124.3062439 480.5944519 C-127.13160354 481.35758004 -129.94383226 482.16085969 -132.7578125 482.96484375 C-134.75171851 483.51201692 -136.74632796 484.05663246 -138.74159241 484.59883118 C-144.01164619 486.03826253 -149.27154914 487.51184928 -154.5300293 488.99291992 C-159.75601794 490.45878004 -164.99055463 491.89334108 -170.22460938 493.33007812 C-178.3190522 495.55616083 -186.40935389 497.79659111 -194.49560547 500.05224609 C-195.93313706 500.4532166 -195.93313706 500.4532166 -197.3997097 500.86228752 C-198.34181612 501.12508066 -199.28392254 501.3878738 -200.25457764 501.65863037 C-207.79994729 503.76329824 -215.34620942 505.864502 -222.89892769 507.94266701 C-224.31353733 508.33287257 -225.72761997 508.72499451 -227.14112663 509.11917686 C-229.05054936 509.65159526 -230.96187046 510.17719172 -232.87329102 510.70239258 C-233.92895767 510.99471268 -234.98462433 511.28703278 -236.07228088 511.58821106 C-238.79296875 512.203125 -238.79296875 512.203125 -242.79296875 512.203125 C-242.15516556 504.3343845 -239.91963406 496.922001 -237.77734375 489.359375 C-237.36444092 487.88674286 -236.95205345 486.41396613 -236.54014587 484.9410553 C-235.66519359 481.81494111 -234.78713166 478.6897212 -233.90731812 475.56497192 C-232.53419826 470.68131671 -231.18149131 465.79213433 -229.83129883 460.90209961 C-222.31416278 433.7213043 -222.31416278 433.7213043 -218.31814575 420.79788208 C-216.97685262 416.45320414 -215.67856596 412.09628885 -214.38464355 407.73730469 C-213.78949965 405.78129236 -213.17144179 403.83208209 -212.52893066 401.89111328 C-208.40967137 389.5601485 -208.40967137 389.5601485 -211.43823242 377.34228516 C-213.05236924 374.50122604 -214.79220011 371.76740895 -216.60958862 369.05264282 C-218.26566543 366.46434216 -219.46367997 363.75604816 -220.6484375 360.92578125 C-221.03999023 359.99072754 -221.43154297 359.05567383 -221.83496094 358.09228516 C-222.21297852 357.1594873 -222.59099609 356.22668945 -222.98046875 355.265625 C-223.39844727 354.24259277 -223.81642578 353.21956055 -224.24707031 352.16552734 C-231.23014037 334.87012338 -236.11731595 317.50216016 -239.79296875 299.203125 C-239.97520996 298.31189941 -240.15745117 297.42067383 -240.34521484 296.50244141 C-245.6220263 269.29929696 -245.3213342 237.32802829 -239.79296875 210.203125 C-239.44913195 208.34767233 -239.10538585 206.49220286 -238.76171875 204.63671875 C-232.16268414 170.61349767 -218.03709158 137.37431451 -197.79296875 109.203125 C-197.05433594 108.17058594 -196.31570312 107.13804688 -195.5546875 106.07421875 C-185.20142783 91.96951153 -173.49565525 77.27685896 -160.0078125 66.05078125 C-158.26151598 64.5939942 -156.55298898 63.09193141 -154.859375 61.57421875 C-113.58463977 24.74869774 -55.61555696 0.2917899 0 0 Z M-140.79296875 109.203125 C-141.30553223 109.71166016 -141.8180957 110.22019531 -142.34619141 110.74414062 C-181.04656756 149.6683706 -199.22055676 205.05064544 -199.1640625 258.99560547 C-198.84053906 279.68223367 -194.84228016 299.4862407 -188.79296875 319.203125 C-188.41112998 320.5103208 -188.02959152 321.81760438 -187.6484375 323.125 C-182.68945733 339.17597469 -175.3804782 354.46815594 -166.28466797 368.56958008 C-165.84268066 369.25560303 -165.40069336 369.94162598 -164.9453125 370.6484375 C-164.55335693 371.24156738 -164.16140137 371.83469727 -163.75756836 372.44580078 C-161.65356319 376.27891372 -161.70584359 378.84672527 -162.83203125 383.02734375 C-163.08017578 383.96457275 -163.32832031 384.90180176 -163.58398438 385.86743164 C-163.85919922 386.86508545 -164.13441406 387.86273926 -164.41796875 388.890625 C-164.69576172 389.92501709 -164.97355469 390.95940918 -165.25976562 392.02514648 C-167.04712738 398.6311251 -168.92912624 405.20647841 -170.89038086 411.76269531 C-172.66328908 417.70126335 -174.33738178 423.66489802 -175.98046875 429.640625 C-176.23054688 430.54047119 -176.480625 431.44031738 -176.73828125 432.36743164 C-178.35151213 438.27043965 -179.67136678 444.18755397 -180.79296875 450.203125 C-175.46973379 449.40290014 -170.27409932 448.20354875 -165.04296875 446.953125 C-164.11484375 446.73205078 -163.18671875 446.51097656 -162.23046875 446.28320312 C-155.65207603 444.69701963 -149.1368861 442.94361359 -142.63085938 441.08569336 C-135.76067929 439.14448581 -128.82854196 437.49930189 -121.87109375 435.90234375 C-118.34648168 435.08646133 -115.00876365 434.28524399 -111.62109375 432.99609375 C-105.88845905 431.38873899 -101.79555939 433.03586487 -96.78125 435.828125 C-94.88463302 436.94520025 -92.99292991 438.07064831 -91.10546875 439.203125 C-75.9901662 447.99783428 -60.58227749 455.22576356 -43.79296875 460.203125 C-42.1378125 460.72132813 -42.1378125 460.72132813 -40.44921875 461.25 C-13.46773514 469.14998394 15.48364393 470.74378152 43.20703125 466.203125 C43.90683105 466.09597168 44.60663086 465.98881836 45.32763672 465.87841797 C68.63873927 462.30449977 91.58781712 454.71084948 112.20703125 443.203125 C112.97724609 442.77547852 113.74746094 442.34783203 114.54101562 441.90722656 C129.4419823 433.53503394 143.70105673 424.01581095 155.6862793 411.7409668 C157.43925629 409.96829027 159.28901553 408.35708201 161.20703125 406.765625 C165.29629266 403.22473198 168.74568621 399.34967507 172.20703125 395.203125 C173.40199219 393.80513672 173.40199219 393.80513672 174.62109375 392.37890625 C197.73987617 365.10433062 214.1626631 332.3108013 221.20703125 297.203125 C221.45670654 296.03052124 221.45670654 296.03052124 221.71142578 294.83422852 C230.15159931 254.49895996 225.34298836 210.99567464 209.20703125 173.203125 C208.88541016 172.43919434 208.56378906 171.67526367 208.23242188 170.88818359 C198.77773364 148.78304935 184.75702931 128.5972497 168.20703125 111.203125 C167.70187988 110.67074219 167.19672852 110.13835937 166.67626953 109.58984375 C154.70897393 97.06042112 141.63158478 86.77223914 127.20703125 77.203125 C126.24023438 76.54828125 125.2734375 75.8934375 124.27734375 75.21875 C45.36488434 23.97689324 -62.87419489 37.48117631 -140.79296875 109.203125 Z " fill="#ECECEC" transform="translate(242.79296875,-0.203125)"/>
<path d="M0 0 C0.88107422 -0.00773438 1.76214844 -0.01546875 2.66992188 -0.0234375 C7.46309148 -0.00907594 11.68512444 0.08414503 16.0625 2.25 C20.0128999 6.43886078 22.09659878 11.23810913 24.3984375 16.43359375 C24.80027252 17.32554947 25.20210754 18.21750519 25.61611938 19.13648987 C26.89671526 21.98382965 28.1670936 24.83560173 29.4375 27.6875 C30.28321642 29.5699481 31.12956479 31.45211243 31.9765625 33.33398438 C33.99487403 37.8246168 35.99383592 42.32351477 37.98474121 46.82635498 C38.97780033 49.05952886 39.98663498 51.28473531 41.00097656 53.50830078 C41.55574269 54.74623824 42.11013657 55.98434261 42.6640625 57.22265625 C43.13408691 58.257854 43.60411133 59.29305176 44.08837891 60.35961914 C45.1591973 63.53691712 45.34819927 65.91907234 45.0625 69.25 C41.86780558 75.36158933 36.68653345 80.1970933 32.0625 85.25 C30.76562064 86.7036997 29.47343026 88.16160591 28.1875 89.625 C27.38699219 90.53378906 27.38699219 90.53378906 26.5703125 91.4609375 C26.07273437 92.05132812 25.57515625 92.64171875 25.0625 93.25 C24.50304687 93.84039062 23.94359375 94.43078125 23.3671875 95.0390625 C21.45245587 98.28378736 21.65868884 100.53652094 22.0625 104.25 C35.58750061 136.06019697 67.49131135 160.49889443 97.375 175.5625 C98.02065918 175.88814941 98.66631836 176.21379883 99.33154297 176.54931641 C101.22818937 177.48331155 103.13725196 178.37657572 105.0625 179.25 C105.72685059 179.55728027 106.39120117 179.86456055 107.07568359 180.18115234 C111.72851175 182.15667356 115.09179437 182.92024861 120.0625 181.25 C122.54476982 179.10701151 124.42624671 176.62610974 126.375 174 C126.9311499 173.28432861 127.4872998 172.56865723 128.06030273 171.83129883 C129.74773191 169.65201485 131.40775396 167.45416564 133.0625 165.25 C134.48614112 163.3723303 135.91231782 161.49669293 137.3425293 159.62402344 C138.55295487 158.03224352 139.74770054 156.42857533 140.94140625 154.82421875 C144.46049361 150.55335582 144.46049361 150.55335582 147.0625 149.25 C153.06782452 149.61045333 157.76408379 151.66087191 163.15234375 154.22265625 C164.4456234 154.82466103 164.4456234 154.82466103 165.76502991 155.43882751 C168.51414446 156.72143963 171.25695053 158.01697641 174 159.3125 C175.80756912 160.15639962 177.61550899 160.99950559 179.42382812 161.84179688 C187.74069111 165.72683929 196.02639545 169.67493724 204.25390625 173.74609375 C204.91913803 174.07255386 205.58436981 174.39901398 206.26976013 174.73536682 C208.8931332 176.0466722 210.97367385 177.16117385 213.0625 179.25 C215.16044396 190.38014477 210.50251952 205.76655193 204.56640625 215.23828125 C194.38441291 228.85835027 181.35375992 238.10570326 164.5625 241.6875 C152.34385609 243.33619258 140.95049147 242.43220446 129.0625 239.25 C127.17724609 238.77433594 127.17724609 238.77433594 125.25390625 238.2890625 C81.15140957 226.62737049 35.93883613 198.47044082 6.69921875 163.19140625 C4.74288102 160.87088155 2.65001069 158.70329432 0.5625 156.5 C-10.80373502 144.005818 -20.88507328 130.10269124 -28.9375 115.25 C-29.28893066 114.60611328 -29.64036133 113.96222656 -30.00244141 113.29882812 C-35.07196537 103.89808265 -38.96885069 94.51657885 -41.9375 84.25 C-42.2571875 83.20714844 -42.576875 82.16429687 -42.90625 81.08984375 C-47.24251582 65.2102777 -46.88291552 44.87378804 -38.9375 30.25 C-38.34001953 29.08597656 -38.34001953 29.08597656 -37.73046875 27.8984375 C-29.61760793 13.16903602 -17.43730544 -0.1524018 0 0 Z " fill="#FDFDFD" transform="translate(174.9375,134.75)"/>
</svg>
